<svg xmlns="http://www.w3.org/2000/svg" viewBox="0 0 512 512">
  <!-- Background -->
  <rect width="512" height="512" rx="108" fill="#1A1A2E"/>
  <!-- Center circle -->
  <circle cx="256" cy="256" r="36" fill="white"/>
  <!-- Branches (lines from center to nodes) -->
  <g stroke="white" stroke-width="10" stroke-linecap="round">
    <line x1="256" y1="220" x2="256" y2="128"/>
    <line x1="286" y1="230" x2="350" y2="166"/>
    <line x1="292" y1="256" x2="384" y2="256"/>
    <line x1="286" y1="282" x2="350" y2="346"/>
    <line x1="256" y1="292" x2="256" y2="384"/>
    <line x1="226" y1="282" x2="162" y2="346"/>
    <line x1="220" y1="256" x2="128" y2="256"/>
    <line x1="226" y1="230" x2="162" y2="166"/>
  </g>
  <!-- Node circles -->
  <circle cx="256" cy="112" r="28" fill="white"/>
  <circle cx="358" cy="154" r="28" fill="rgba(255,255,255,0.8)"/>
  <circle cx="400" cy="256" r="28" fill="rgba(255,255,255,0.6)"/>
  <circle cx="358" cy="358" r="28" fill="rgba(255,255,255,0.8)"/>
  <circle cx="256" cy="400" r="28" fill="white"/>
  <circle cx="154" cy="358" r="28" fill="rgba(255,255,255,0.8)"/>
  <circle cx="112" cy="256" r="28" fill="rgba(255,255,255,0.6)"/>
  <circle cx="154" cy="154" r="28" fill="rgba(255,255,255,0.8)"/>
</svg>
